<svg width="20" height="20" viewBox="0 0 20 20" fill="none" xmlns="http://www.w3.org/2000/svg">
<g clip-path="url(#clip0_102_23)">
<path d="M7.5 15.8334C3.33334 17.0834 3.33334 13.75 1.66667 13.3334M13.3333 18.3334V15.1084C13.3646 14.711 13.3109 14.3115 13.1759 13.9365C13.0408 13.5615 12.8274 13.2195 12.55 12.9334C15.1667 12.6417 17.9167 11.65 17.9167 7.10003C17.9165 5.93655 17.4689 4.8177 16.6667 3.97503C17.0466 2.95712 17.0197 1.83199 16.5917 0.833363C16.5917 0.833363 15.6083 0.541696 13.3333 2.0667C11.4233 1.54905 9.41 1.54905 7.5 2.0667C5.225 0.541696 4.24167 0.833363 4.24167 0.833363C3.81365 1.83199 3.78679 2.95712 4.16667 3.97503C3.35844 4.82395 2.91044 5.95292 2.91667 7.12503C2.91667 11.6417 5.66667 12.6334 8.28334 12.9584C8.00917 13.2417 7.79772 13.5795 7.66276 13.95C7.5278 14.3204 7.47234 14.7151 7.5 15.1084V18.3334" stroke="#1E1E1E" stroke-width="2" stroke-linecap="round" stroke-linejoin="round"/>
</g>
<defs>
<clipPath id="clip0_102_23">
<rect width="20" height="20" fill="white"/>
</clipPath>
</defs>
</svg>
