<svg width="53" height="52" viewBox="0 0 53 52" fill="none" xmlns="http://www.w3.org/2000/svg">
<path d="M46.905 11.925L27.9575 3.18L2.12 10.7325L13.78 28.2225L10.865 48.23H40.9425L49.6875 30.6075L46.905 11.925ZM38.5575 44.3875H15.5025L17.8875 27.295L8.48 13.1175L27.6925 7.42L43.195 14.575L45.58 30.0775L38.5575 44.3875Z" fill="#30BFFF"/>
<path d="M22.525 5.3C22.525 6.70565 23.0834 8.05372 24.0773 9.04766C25.0713 10.0416 26.4193 10.6 27.825 10.6C29.2306 10.6 30.5787 10.0416 31.5727 9.04766C32.5666 8.05372 33.125 6.70565 33.125 5.3C33.125 4.60399 32.9879 3.9148 32.7216 3.27178C32.4552 2.62875 32.0648 2.04448 31.5727 1.55233C31.0805 1.06018 30.4962 0.669788 29.8532 0.403438C29.2102 0.137089 28.521 0 27.825 0C27.129 0 26.4398 0.137089 25.7968 0.403438C25.1537 0.669788 24.5695 1.06018 24.0773 1.55233C23.5852 2.04448 23.1948 2.62875 22.9284 3.27178C22.6621 3.9148 22.525 4.60399 22.525 5.3Z" fill="#FBD679"/>
<path d="M39.75 13.25C39.75 14.6556 40.3084 16.0037 41.3024 16.9977C42.2963 17.9916 43.6444 18.55 45.05 18.55C46.4557 18.55 47.8038 17.9916 48.7977 16.9977C49.7916 16.0037 50.35 14.6556 50.35 13.25C50.35 11.8443 49.7916 10.4963 48.7977 9.50233C47.8038 8.50839 46.4557 7.95 45.05 7.95C43.6444 7.95 42.2963 8.50839 41.3024 9.50233C40.3084 10.4963 39.75 11.8443 39.75 13.25Z" fill="#FBD679"/>
<path d="M42.4 30.475C42.4 31.8806 42.9584 33.2287 43.9523 34.2227C44.9463 35.2166 46.2944 35.775 47.7 35.775C49.1057 35.775 50.4537 35.2166 51.4477 34.2227C52.4416 33.2287 53 31.8806 53 30.475C53 29.0693 52.4416 27.7213 51.4477 26.7273C50.4537 25.7334 49.1057 25.175 47.7 25.175C46.2944 25.175 44.9463 25.7334 43.9523 26.7273C42.9584 27.7213 42.4 29.0693 42.4 30.475Z" fill="#FBD679"/>
<path d="M0 11.925C0 13.3306 0.558391 14.6787 1.55233 15.6727C2.54628 16.6666 3.89435 17.225 5.3 17.225C6.70565 17.225 8.05373 16.6666 9.04767 15.6727C10.0416 14.6787 10.6 13.3306 10.6 11.925C10.6 10.5194 10.0416 9.17128 9.04767 8.17733C8.05373 7.18339 6.70565 6.625 5.3 6.625C3.89435 6.625 2.54628 7.18339 1.55233 8.17733C0.558391 9.17128 0 10.5194 0 11.925Z" fill="#FBD679"/>
<path d="M7.95 46.375C7.95 47.7806 8.5084 49.1287 9.50234 50.1227C10.4963 51.1166 11.8444 51.675 13.25 51.675C14.6557 51.675 16.0037 51.1166 16.9977 50.1227C17.9916 49.1287 18.55 47.7806 18.55 46.375C18.55 44.9694 17.9916 43.6213 16.9977 42.6273C16.0037 41.6334 14.6557 41.075 13.25 41.075C11.8444 41.075 10.4963 41.6334 9.50234 42.6273C8.5084 43.6213 7.95 44.9694 7.95 46.375Z" fill="#FBD679"/>
<path d="M10.6 27.825C10.6 29.2306 11.1584 30.5787 12.1523 31.5726C13.1463 32.5666 14.4944 33.125 15.9 33.125C17.3056 33.125 18.6537 32.5666 19.6477 31.5726C20.6416 30.5787 21.2 29.2306 21.2 27.825C21.2 26.4193 20.6416 25.0713 19.6477 24.0773C18.6537 23.0834 17.3056 22.525 15.9 22.525C14.4944 22.525 13.1463 23.0834 12.1523 24.0773C11.1584 25.0713 10.6 26.4193 10.6 27.825Z" fill="#FBD679"/>
<path d="M34.45 46.375C34.45 47.071 34.5871 47.7602 34.8535 48.4032C35.1198 49.0462 35.5102 49.6305 36.0024 50.1227C36.4945 50.6148 37.0788 51.0052 37.7218 51.2716C38.3648 51.5379 39.054 51.675 39.75 51.675C40.446 51.675 41.1352 51.5379 41.7783 51.2716C42.4213 51.0052 43.0055 50.6148 43.4977 50.1227C43.9898 49.6305 44.3802 49.0462 44.6466 48.4032C44.9129 47.7602 45.05 47.071 45.05 46.375C45.05 45.679 44.9129 44.9898 44.6466 44.3468C44.3802 43.7038 43.9898 43.1195 43.4977 42.6273C43.0055 42.1352 42.4213 41.7448 41.7783 41.4784C41.1352 41.2121 40.446 41.075 39.75 41.075C39.054 41.075 38.3648 41.2121 37.7218 41.4784C37.0788 41.7448 36.4945 42.1352 36.0024 42.6273C35.5102 43.1195 35.1198 43.7038 34.8535 44.3468C34.5871 44.9898 34.45 45.679 34.45 46.375Z" fill="#FBD679"/>
</svg>
